<svg xmlns="http://www.w3.org/2000/svg" xmlns:ev="http://www.w3.org/2001/xml-events" xmlns:xlink="http://www.w3.org/1999/xlink" width="925.333" height="363.692" class="st9" color-interpolation-filters="sRGB" viewBox="0 0 694 272.769" xml:space="preserve"><style type="text/css">.st1{fill:#ea700d;stroke:#ea700d;stroke-linecap:round;stroke-linejoin:round;stroke-width:1}.st2{fill:#000;font-family:Calibri;font-size:1.16666em}.st3,.st4{stroke:#000}.st3{marker-start:url(#mrkr4-15);stroke-linecap:round;stroke-linejoin:round;stroke-width:1}.st4{fill:#000;fill-opacity:1;stroke-opacity:1;stroke-width:.28409090909091}.st5{fill:#f2f2f2;stroke:#bfbfbf}.st5,.st6,.st7{stroke-linecap:round;stroke-linejoin:round;stroke-width:1}.st6{marker-end:url(#mrkr4-36);stroke:#000}.st7{fill:none;stroke:none}.st8{fill:#000;font-family:Calibri;font-size:1.5em}.st9{fill:none;fill-rule:evenodd;font-size:12px;overflow:visible;stroke-linecap:square;stroke-miterlimit:3}</style><defs id="Markers"><g id="lend4"><path d="M 2 1 L 0 0 L 2 -1 L 2 1" style="stroke:none"/></g><marker id="mrkr4-15" class="st4" markerUnits="strokeWidth" orient="auto" overflow="visible" refX="6.68"><use transform="scale(3.52)" xlink:href="#lend4"/></marker><marker id="mrkr4-36" class="st4" markerUnits="strokeWidth" orient="auto" overflow="visible" refX="-7.04"><use transform="scale(-3.52,-3.52)" xlink:href="#lend4"/></marker></defs><g><title>Page-1</title><g id="shape1-1" transform="translate(528.145,-190.385)"><title>Ellipse</title><desc>Consumer</desc><path d="M0 245.77 A49.5 27 0 1 1 99 245.77 A49.5 27 0 0 1 0 245.77 Z" class="st1"/><text x="20.47" y="249.97" class="st2">Consumer</text></g><g id="shape7-4" transform="translate(528.145,-109.385)"><title>Ellipse.19</title><desc>Consumer</desc><path d="M0 245.77 A49.5 27 0 1 1 99 245.77 A49.5 27 0 0 1 0 245.77 Z" class="st1"/><text x="20.47" y="249.97" class="st2">Consumer</text></g><g id="shape8-7" transform="translate(528.145,-28.3846)"><title>Ellipse.20</title><desc>Consumer</desc><path d="M0 245.77 A49.5 27 0 1 1 99 245.77 A49.5 27 0 0 1 0 245.77 Z" class="st1"/><text x="20.47" y="249.97" class="st2">Consumer</text></g><g id="shape12-10" transform="translate(528.145,-55.3846)"><title>Dynamic connector</title><path d="M-6.68 272.77 L-7.04 272.77 L-52.32 272.77 L-52.32 191.77" class="st3"/></g><g id="shape13-16" transform="translate(528.145,-217.385)"><title>Dynamic connector.13</title><path d="M-6.68 272.77 L-7.04 272.77 L-52.32 272.77 L-52.32 353.77" class="st3"/></g><g id="shape16-21" transform="translate(644,-201.293)"><title>Rectangle</title><desc>A</desc><rect width="31.5" height="32.183" x="0" y="240.587" class="st5"/><text x="11.7" y="260.88" class="st2">A</text></g><g id="shape17-24" transform="translate(644,-120.293)"><title>Rectangle.17</title><desc>A</desc><rect width="31.5" height="32.183" x="0" y="240.587" class="st5"/><text x="11.7" y="260.88" class="st2">A</text></g><g id="shape18-27" transform="translate(644,-39.2933)"><title>Rectangle.18</title><desc>A</desc><rect width="31.5" height="32.183" x="0" y="240.587" class="st5"/><text x="11.7" y="260.88" class="st2">A</text></g><g id="group26-30" transform="translate(214.823,-109.385)"><title>Sheet.26</title></g><g id="shape30-31" transform="translate(430.823,-127.385)"><title>Dynamic connector.30</title><path d="M0 263.77 L90.28 263.77" class="st6"/></g><g id="shape32-37" transform="translate(18.5,-109.385)"><title>Ellipse.32</title><desc>Consumer</desc><path d="M0 245.77 A49.5 27 0 1 1 99 245.77 A49.5 27 0 0 1 0 245.77 Z" class="st1"/><text x="20.47" y="249.97" class="st2">Consumer</text></g><g id="shape33-40" transform="translate(117.5,-127.385)"><title>Dynamic connector.33</title><path d="M0 263.77 L90.28 263.77" class="st6"/></g><g id="shape35-45" transform="translate(99.38,-199.385)"><title>Sheet.35</title><desc>Hub (Broadcasting)</desc><rect width="162" height="36" x="0" y="236.769" class="st7"/><text x="6.73" y="260.17" class="st8">Hub (Broadcasting)</text></g><g id="group36-48" transform="translate(214.823,-109.385)"><title>Sheet.36</title><g id="shape19-49" transform="translate(54,0)"><title>Square</title><desc>C</desc><rect width="54" height="54" x="0" y="218.769" class="st5"/><text x="23.27" y="249.97" class="st2">C</text></g><g id="shape20-52" transform="translate(108,0)"><title>Square.20</title><desc>B</desc><rect width="54" height="54" x="0" y="218.769" class="st5"/><text x="23.19" y="249.97" class="st2">B</text></g><g id="shape21-55"><title>Square.21</title><rect width="54" height="54" x="0" y="218.769" class="st5"/></g><g id="shape22-57" transform="translate(162,0)"><title>Square.22</title><desc>A</desc><rect width="54" height="54" x="0" y="218.769" class="st5"/><text x="22.95" y="249.97" class="st2">A</text></g></g></g></svg>